<svg width="71" height="79" viewBox="0 0 71 79" fill="none" xmlns="http://www.w3.org/2000/svg">
<path fill-rule="evenodd" clip-rule="evenodd" d="M41.2455 0.95173C49.5354 -1.05868 59.6658 -0.100446 65.7112 5.91746C71.6773 11.8565 69.771 21.6963 70.5087 30.082C71.0689 36.4504 71.5749 42.7231 69.4801 48.7632C67.4184 54.708 63.2934 59.3531 58.8219 63.7802C53.5226 69.0268 48.4714 74.8736 41.2455 76.7172C32.7537 78.8837 21.5644 81.2746 15.6699 74.7896C9.52423 68.0283 17.9571 56.7628 15.1926 48.0543C12.463 39.4563 -2.14929 34.967 0.268944 26.2763C2.64667 17.7312 16.5648 20.6694 24.1101 16.0062C30.74 11.9088 33.6711 2.78861 41.2455 0.95173Z" fill="#DDDEFC"/>
</svg>
