<svg width="45" height="48" viewBox="0 0 45 48" fill="none" xmlns="http://www.w3.org/2000/svg">
<path fill-rule="evenodd" clip-rule="evenodd" d="M19.1118 0.294105C24.6122 -0.895191 30.4777 1.671 34.8104 5.3179C39.0006 8.84476 40.552 14.3971 42.1501 19.6857C43.7219 24.8869 46.5508 30.7618 43.9333 35.5072C41.3182 40.248 34.6586 40.0614 29.7397 42.1845C26.1713 43.7248 22.929 45.5351 19.1118 46.2209C14.4815 47.0529 9.01504 49.5694 5.35522 46.5659C1.67014 43.5417 3.63261 37.4524 2.67801 32.7344C1.86827 28.7324 -0.719804 25.0264 0.19198 21.0471C1.1382 16.9176 4.77842 14.3074 7.61263 11.1986C11.2654 7.19197 13.8579 1.43011 19.1118 0.294105Z" fill="#DDDEFC"/>
</svg>
